<svg width="150" height="159" viewBox="0 0 150 159" fill="none" xmlns="http://www.w3.org/2000/svg">
<path d="M5.30412 91.0514V97.6603" stroke="#53B175" stroke-width="4" stroke-linecap="round" stroke-linejoin="round"/>
<path d="M8.60889 94.3562H2" stroke="#53B175" stroke-width="4" stroke-linecap="round" stroke-linejoin="round"/>
<path d="M133.188 126.618V133.227" stroke="#53B175" stroke-width="4" stroke-linecap="round" stroke-linejoin="round"/>
<path d="M136.492 129.922H129.883" stroke="#53B175" stroke-width="4" stroke-linecap="round" stroke-linejoin="round"/>
<path d="M11.4038 47.0451C13.567 47.0451 15.3206 45.2915 15.3206 43.1283C15.3206 40.9651 13.567 39.2114 11.4038 39.2114C9.24058 39.2114 7.48696 40.9651 7.48696 43.1283C7.48696 45.2915 9.24058 47.0451 11.4038 47.0451Z" stroke="#53B175" stroke-width="4" stroke-linecap="round" stroke-linejoin="round"/>
<path d="M143.267 76.8692C145.43 76.8692 147.184 75.1156 147.184 72.9524C147.184 70.7892 145.43 69.0356 143.267 69.0356C141.103 69.0356 139.35 70.7892 139.35 72.9524C139.35 75.1156 141.103 76.8692 143.267 76.8692Z" stroke="#53B175" stroke-width="4" stroke-linecap="round" stroke-linejoin="round"/>
<path d="M90.4971 9.83365C92.6603 9.83365 94.414 8.08003 94.414 5.91683C94.414 3.75362 92.6603 2 90.4971 2C88.3339 2 86.5803 3.75362 86.5803 5.91683C86.5803 8.08003 88.3339 9.83365 90.4971 9.83365Z" stroke="#53B175" stroke-width="4" stroke-linecap="round" stroke-linejoin="round"/>
<path d="M58.6788 117.365H106.77C109.18 117.39 111.507 116.492 113.275 114.854C115.042 113.216 116.115 110.964 116.274 108.559C116.334 107.308 116.14 106.058 115.703 104.884C115.266 103.71 114.595 102.637 113.731 101.73C112.866 100.823 111.827 100.101 110.676 99.6074C109.524 99.1141 108.284 98.8597 107.032 98.8597" stroke="#53B175" stroke-width="4" stroke-linecap="round" stroke-linejoin="round"/>
<path d="M115.493 104.355C115.493 104.362 115.499 104.368 115.499 104.375C115.499 104.368 115.493 104.362 115.493 104.355ZM115.493 104.355L92.9384 49.3632H35.2679C33.6892 49.3635 32.1349 49.7526 30.7422 50.4961C29.3496 51.2397 28.1614 52.3147 27.2828 53.6264C26.4042 54.938 25.8621 56.4458 25.7045 58.0167C25.5469 59.5875 25.7785 61.173 26.379 62.633L37.1524 88.8153C38.373 91.7863 40.4492 94.3274 43.1171 96.116C45.7851 97.9045 48.9245 98.8598 52.1365 98.8603H107.031C108.822 98.8599 110.574 99.3787 112.076 100.354C113.578 101.329 114.765 102.719 115.493 104.355Z" stroke="#53B175" stroke-width="4" stroke-linecap="round" stroke-linejoin="round"/>
<path d="M60.2768 117.365C57.0644 117.365 53.9245 116.41 51.2556 114.622C48.5868 112.835 46.5093 110.294 45.287 107.323" stroke="#53B175" stroke-width="4" stroke-linecap="round" stroke-linejoin="round"/>
<path d="M106.532 40.1136C106.532 42.5676 105.557 44.9211 103.822 46.6563C102.087 48.3915 99.7333 49.3663 97.2793 49.3663H92.9371" stroke="#53B175" stroke-width="4" stroke-linecap="round" stroke-linejoin="round"/>
<path d="M66.1384 135.87C71.2485 135.87 75.3911 131.728 75.3911 126.618C75.3911 121.508 71.2485 117.365 66.1384 117.365C61.0283 117.365 56.8857 121.508 56.8857 126.618C56.8857 131.728 61.0283 135.87 66.1384 135.87Z" stroke="#53B175" stroke-width="4" stroke-linecap="round" stroke-linejoin="round"/>
<path d="M62.6787 126.04C62.6787 125.265 62.9864 124.523 63.5341 123.975C64.0819 123.427 64.8247 123.119 65.5993 123.119" stroke="#53B175" stroke-width="4" stroke-linecap="round" stroke-linejoin="round"/>
<path d="M40.0432 61.0337L50.8152 87.2184" stroke="#53B175" stroke-width="4" stroke-linecap="round" stroke-linejoin="round"/>
<path d="M54.6038 61.0337L65.3758 87.2184" stroke="#53B175" stroke-width="4" stroke-linecap="round" stroke-linejoin="round"/>
<path d="M69.1651 61.0337L79.9372 87.2184" stroke="#53B175" stroke-width="4" stroke-linecap="round" stroke-linejoin="round"/>
<path d="M83.7263 61.0337L94.4984 87.2184" stroke="#53B175" stroke-width="4" stroke-linecap="round" stroke-linejoin="round"/>
<path d="M45.4292 74.1264H88.3137" stroke="#53B175" stroke-width="4" stroke-linecap="round" stroke-linejoin="round"/>
<path d="M126.262 34.3752C125.834 33.3355 125.107 32.4464 124.173 31.8207C123.239 31.195 122.14 30.8609 121.016 30.861H115.785C113.331 30.861 110.977 31.8358 109.242 33.571C107.507 35.3062 106.532 37.6597 106.532 40.1137H122.418C123.1 40.1135 123.773 39.9453 124.375 39.6238C124.977 39.3023 125.491 38.8374 125.871 38.2702C126.251 37.703 126.486 37.0509 126.554 36.3716C126.622 35.6923 126.522 35.0067 126.262 34.3752V34.3752Z" stroke="#53B175" stroke-width="4" stroke-linecap="round" stroke-linejoin="round"/>
<path d="M99.7499 135.87C104.86 135.87 109.003 131.728 109.003 126.618C109.003 121.508 104.86 117.365 99.7499 117.365C94.6398 117.365 90.4972 121.508 90.4972 126.618C90.4972 131.728 94.6398 135.87 99.7499 135.87Z" stroke="#53B175" stroke-width="4" stroke-linecap="round" stroke-linejoin="round"/>
<path d="M96.2901 126.04C96.2901 125.265 96.5979 124.523 97.1456 123.975C97.6934 123.427 98.4362 123.119 99.2108 123.119" stroke="#53B175" stroke-width="4" stroke-linecap="round" stroke-linejoin="round"/>
<path d="M77.5245 48.6489C77.5912 43.2406 74.4045 36.9664 68.1004 37.6603C67.257 37.7547 66.4278 37.9493 65.6305 38.24C64.6673 38.5943 63.6095 38.5943 62.6463 38.24C61.8492 37.9493 61.0204 37.7547 60.1772 37.6603C53.8724 36.9619 50.6864 43.2406 50.753 48.6489" stroke="#53B175" stroke-width="4" stroke-linecap="round" stroke-linejoin="round"/>
<path d="M64.1397 37.8476C64.1401 37.1862 64.0102 36.5312 63.7573 35.92C63.5044 35.3088 63.1334 34.7535 62.6658 34.2858C62.1981 33.8181 61.6429 33.4471 61.0317 33.1941C60.4206 32.9411 59.7655 32.8111 59.1041 32.8114" stroke="#53B175" stroke-width="4" stroke-linecap="round" stroke-linejoin="round"/>
<path d="M71.4927 30.4946C71.4933 31.4604 71.3035 32.4168 70.9342 33.3092C70.5648 34.2015 70.0232 35.0123 69.3403 35.6953C68.6574 36.3782 67.8466 36.9198 66.9543 37.2891C66.0619 37.6584 65.1055 37.8482 64.1397 37.8476C64.1392 36.8819 64.3291 35.9255 64.6984 35.0331C65.0678 34.1408 65.6093 33.33 66.2922 32.6471C66.9751 31.9642 67.7859 31.4226 68.6782 31.0533C69.5705 30.6839 70.527 30.4941 71.4927 30.4946V30.4946Z" stroke="#53B175" stroke-width="4" stroke-linecap="round" stroke-linejoin="round"/>
<path d="M59.9238 42.6863C59.9238 42.6863 56.1657 44.0622 55.6832 48.9828" stroke="#53B175" stroke-width="4" stroke-linecap="round" stroke-linejoin="round"/>
</svg>
