<svg width="174" height="204" viewBox="0 0 174 204" fill="none" xmlns="http://www.w3.org/2000/svg">
<path d="M32.4482 70.5529V78.1785" stroke="#53B175" stroke-width="4" stroke-linecap="round" stroke-linejoin="round"/>
<path d="M36.2615 74.366H28.6359" stroke="#53B175" stroke-width="4" stroke-linecap="round" stroke-linejoin="round"/>
<path d="M147.039 85.2173V92.8429" stroke="#53B175" stroke-width="4" stroke-linecap="round" stroke-linejoin="round"/>
<path d="M150.852 89.0297H143.226" stroke="#53B175" stroke-width="4" stroke-linecap="round" stroke-linejoin="round"/>
<path d="M84.0356 194.374V202" stroke="#53B175" stroke-width="4" stroke-linecap="round" stroke-linejoin="round"/>
<path d="M87.848 198.187H80.2224" stroke="#53B175" stroke-width="4" stroke-linecap="round" stroke-linejoin="round"/>
<path d="M6.5194 136.26C9.01539 136.26 11.0388 134.236 11.0388 131.74C11.0388 129.244 9.01539 127.221 6.5194 127.221C4.0234 127.221 2 129.244 2 131.74C2 134.236 4.0234 136.26 6.5194 136.26Z" stroke="#53B175" stroke-width="4" stroke-linecap="round" stroke-linejoin="round"/>
<path d="M166.727 161.148C169.223 161.148 171.246 159.125 171.246 156.629C171.246 154.133 169.223 152.109 166.727 152.109C164.231 152.109 162.208 154.133 162.208 156.629C162.208 159.125 164.231 161.148 166.727 161.148Z" stroke="#53B175" stroke-width="4" stroke-linecap="round" stroke-linejoin="round"/>
<path d="M103.678 2H72.7513C69.4034 2.00388 66.1937 3.33555 63.8264 5.70288C61.4591 8.07021 60.1274 11.2799 60.1235 14.6278V31.9574C60.1274 35.3053 61.4591 38.515 63.8264 40.8823C66.1937 43.2496 69.4034 44.5813 72.7513 44.5852H80.5484L88.215 51.2203L95.8809 44.5852H103.678C107.026 44.5813 110.236 43.2496 112.603 40.8823C114.97 38.515 116.302 35.3053 116.306 31.9574V14.6278C116.302 11.2799 114.97 8.07021 112.603 5.70288C110.236 3.33555 107.026 2.00388 103.678 2V2Z" stroke="#53B175" stroke-width="4" stroke-linecap="round" stroke-linejoin="round"/>
<path d="M99.9045 18.4988C99.5246 17.2851 98.7719 16.2219 97.7533 15.4603C96.7348 14.6987 95.5021 14.2774 94.2305 14.2563C93.461 14.2586 92.6996 14.4134 91.9903 14.7117C91.281 15.0099 90.6378 15.4458 90.0979 15.9941V15.9941C89.3502 16.6777 88.7148 17.4747 88.2151 18.356C87.715 17.4748 87.0794 16.6777 86.3316 15.9941V15.9941C85.7917 15.4458 85.1486 15.0099 84.4392 14.7117C83.7299 14.4134 82.9685 14.2586 82.1991 14.2563C80.9274 14.2774 79.6948 14.6987 78.6762 15.4603C77.6576 16.2219 76.905 17.2851 76.5251 18.4988C74.1874 25.0497 83.443 32.1772 86.9324 34.5816C87.3095 34.8412 87.7566 34.9802 88.2144 34.9802C88.6723 34.9802 89.1193 34.8412 89.4965 34.5816C92.9866 32.1772 102.242 25.0497 99.9045 18.4988Z" stroke="#53B175" stroke-width="4" stroke-linecap="round" stroke-linejoin="round"/>
<path d="M106.157 68.1096H70.2715C64.2705 68.1096 59.4056 72.9744 59.4056 78.9755V160.146C59.4056 166.147 64.2705 171.012 70.2715 171.012H106.157C112.158 171.012 117.023 166.147 117.023 160.146V78.9755C117.023 72.9744 112.158 68.1096 106.157 68.1096Z" stroke="#53B175" stroke-width="4" stroke-linecap="round" stroke-linejoin="round"/>
<path d="M106.157 68.1096H70.2715C64.2705 68.1096 59.4056 72.9744 59.4056 78.9755V100.13C59.4056 106.131 64.2705 110.996 70.2715 110.996H106.157C112.158 110.996 117.023 106.131 117.023 100.13V78.9755C117.023 72.9744 112.158 68.1096 106.157 68.1096Z" stroke="#53B175" stroke-width="4" stroke-linecap="round" stroke-linejoin="round"/>
<path d="M100.839 148.868H75.5895C73.0195 148.868 70.936 150.952 70.936 153.522V154.542C70.936 157.112 73.0195 159.196 75.5895 159.196H100.839C103.409 159.196 105.493 157.112 105.493 154.542V153.522C105.493 150.952 103.409 148.868 100.839 148.868Z" fill="#53B175"/>
<path d="M70.936 123.213H105.493" stroke="#53B175" stroke-width="4" stroke-linecap="round" stroke-linejoin="round"/>
<path d="M70.936 130.715H105.493" stroke="#53B175" stroke-width="4" stroke-linecap="round" stroke-linejoin="round"/>
<path d="M70.936 138.217H105.493" stroke="#53B175" stroke-width="4" stroke-linecap="round" stroke-linejoin="round"/>
<path d="M104.058 109.539C104.135 103.299 100.458 96.059 93.1836 96.8597C92.2105 96.9687 91.2538 97.1932 90.3338 97.5286C89.2225 97.9374 88.0019 97.9374 86.8905 97.5286C85.9708 97.1932 85.0144 96.9687 84.0415 96.8597C76.7668 96.0539 73.0906 103.299 73.1676 109.539" stroke="#53B175" stroke-width="4" stroke-linecap="round" stroke-linejoin="round"/>
<path d="M88.6136 97.0759C88.6141 96.3127 88.4642 95.5569 88.1724 94.8517C87.8806 94.1465 87.4526 93.5058 86.9129 92.9661C86.3733 92.4264 85.7327 91.9984 85.0275 91.7065C84.3224 91.4146 83.5665 91.2645 82.8033 91.2649" stroke="#53B175" stroke-width="4" stroke-linecap="round" stroke-linejoin="round"/>
<path d="M97.0979 88.5916C97.0986 89.706 96.8795 90.8095 96.4534 91.8392C96.0273 92.8688 95.4024 93.8044 94.6144 94.5924C93.8264 95.3803 92.8909 96.0053 91.8612 96.4314C90.8316 96.8575 89.728 97.0765 88.6136 97.0758C88.6131 95.9615 88.8322 94.858 89.2583 93.8284C89.6845 92.7988 90.3094 91.8632 91.0973 91.0753C91.8853 90.2873 92.8208 89.6624 93.8504 89.2363C94.88 88.8101 95.9836 88.591 97.0979 88.5916V88.5916Z" stroke="#53B175" stroke-width="4" stroke-linecap="round" stroke-linejoin="round"/>
<path d="M83.7492 102.659C83.7492 102.659 79.413 104.247 78.8562 109.924L83.7492 102.659Z" fill="#DFFFCA"/>
<path d="M83.7492 102.659C83.7492 102.659 79.413 104.247 78.8562 109.924" stroke="#53B175" stroke-width="4" stroke-linecap="round" stroke-linejoin="round"/>
</svg>
